<svg width="16" height="16" viewBox="0 0 16 16" fill="none" xmlns="http://www.w3.org/2000/svg">
<path id="Vector" d="M7.832 7.6H6.176V4.952H8.152C9.16 4.952 9.72 5.4 9.72 6.224C9.72 7.12 9.056 7.6 7.832 7.6ZM8.128 8.504H6.176V11.416H8.224C9.472 11.416 10.128 10.912 10.128 9.952C10.128 8.992 9.448 8.504 8.128 8.504ZM16 2.648V13.352C16 14.8 14.8 16 13.352 16H2.648C1.2 16 0 14.8 0 13.352V2.648C0 1.2 1.2 0 2.648 0H13.352C14.8 0 16 1.2 16 2.648ZM11.2 10C11.2 8.896 10.464 8.104 9.336 7.96V7.912C10.136 7.768 10.768 6.968 10.768 6.104C10.768 4.864 9.808 4.04 8.4 4.04H5.144V12.328H8.376C10.144 12.328 11.2 11.456 11.2 10Z" fill="white"/>
</svg>
