<svg width="16" height="16" viewBox="0 0 16 16" fill="none" xmlns="http://www.w3.org/2000/svg">
<path id="Vector" d="M8 16C5.77778 16 3.88889 15.2222 2.33333 13.6667C0.777778 12.1111 0 10.2222 0 8C0 5.77778 0.777778 3.88889 2.33333 2.33333C3.88889 0.777778 5.77778 0 8 0C8.20741 0 8.41126 0.00740749 8.61156 0.0222223C8.81185 0.0370371 9.008 0.0592592 9.2 0.0888888C8.59259 0.518518 8.10726 1.07793 7.744 1.76711C7.38074 2.4563 7.19941 3.20059 7.2 4C7.2 5.33333 7.66667 6.46667 8.6 7.4C9.53333 8.33333 10.6667 8.8 12 8.8C12.8148 8.8 13.563 8.61837 14.2444 8.25511C14.9259 7.89185 15.4815 7.40681 15.9111 6.8C15.9407 6.99259 15.963 7.18874 15.9778 7.38844C15.9926 7.58815 16 7.792 16 8C16 10.2222 15.2222 12.1111 13.6667 13.6667C12.1111 15.2222 10.2222 16 8 16Z" fill="white"/>
</svg>
