<svg width="16" height="16" viewBox="0 0 16 16" fill="none" xmlns="http://www.w3.org/2000/svg">
<path id="Vector" d="M0 0H16V16H0V0ZM4.20444 13.3689C4.56 14.1244 5.26222 14.7467 6.46222 14.7467C7.79556 14.7467 8.71111 14.0356 8.71111 12.48V7.34222H7.2V12.4444C7.2 13.2089 6.88889 13.4044 6.4 13.4044C5.88444 13.4044 5.67111 13.0489 5.43111 12.6311L4.20444 13.3689ZM9.52 13.2089C9.96444 14.08 10.8622 14.7467 12.2667 14.7467C13.6889 14.7467 14.7556 14.0089 14.7556 12.6489C14.7556 11.3956 14.0356 10.8356 12.7556 10.2844L12.3822 10.1244C11.7333 9.84889 11.4578 9.66222 11.4578 9.21778C11.4578 8.85333 11.7333 8.56889 12.1778 8.56889C12.6044 8.56889 12.8889 8.75556 13.1467 9.21778L14.3111 8.44444C13.8222 7.59111 13.1289 7.26222 12.1778 7.26222C10.8356 7.26222 9.97333 8.11556 9.97333 9.24444C9.97333 10.4711 10.6933 11.0489 11.7778 11.5111L12.1511 11.6711C12.8444 11.9733 13.2533 12.16 13.2533 12.6756C13.2533 13.1022 12.8533 13.4133 12.2311 13.4133C11.4933 13.4133 11.0667 13.0311 10.7467 12.4978L9.52 13.2089Z" fill="white"/>
</svg>
