<svg width="16" height="16" viewBox="0 0 16 16" fill="none" xmlns="http://www.w3.org/2000/svg">
<path id="Vector" d="M13.7734 9.19768L13.8394 9.19635C14.2566 9.19635 14.6513 9.32569 15.0015 9.55636L14.9859 9.54703C15.2975 9.74758 15.5635 10.0547 15.7568 10.4371L15.7613 10.4464C15.9296 10.7755 16.0128 11.1687 15.9984 11.5665V11.5625C15.9913 11.7462 15.9568 11.9263 15.8969 12.0921C15.8369 12.2578 15.7527 12.406 15.6492 12.5278L15.6482 12.5292C15.5366 12.6753 15.4027 12.7879 15.2556 12.8592L15.2481 12.8625C15.1647 12.8847 15.1188 12.8681 15.1105 12.8125C15.1022 12.757 15.1397 12.6958 15.2231 12.6292C15.4492 12.4465 15.6127 12.1518 15.6723 11.8045L15.6738 11.7958C15.6867 11.5643 15.6521 11.3324 15.5737 11.1251L15.5762 11.1324C15.4712 10.8376 15.3089 10.5858 15.106 10.4031L15.101 10.3991C14.7875 10.1324 14.4297 9.97242 14.059 9.93305L14.051 9.93238C13.5201 9.83172 12.9788 9.91554 12.4793 10.1757L12.5003 10.1657C12.5729 10.3917 12.6184 10.6537 12.6249 10.9284V10.9318C12.6213 11.1994 12.5668 11.4614 12.4667 11.6934C12.3665 11.9254 12.2239 12.1198 12.0521 12.2585L12.0466 12.2625C11.8916 12.4092 11.7145 12.5378 11.5259 12.6378L11.5084 12.6458C11.3716 12.7336 11.2203 12.7736 11.0687 12.7618H11.0712C10.7547 12.6734 10.6797 12.3067 10.8461 11.6618C10.9186 11.3811 11.0202 11.1378 11.1487 10.9238L11.1457 10.9284C11.3103 10.6417 11.4909 10.3904 11.6905 10.1677L11.696 10.1617L11.6469 10.0644C11.5498 9.84066 11.4684 9.60542 11.4038 9.36169L11.3968 9.33102C11.3468 9.10879 11.3051 8.89789 11.2718 8.69832L11.2468 8.46498L10.9967 9.09768C10.7799 9.63103 10.5715 10.0975 10.3714 10.4971L10.2963 10.6637C10.3804 10.9358 10.4424 11.2511 10.4704 11.5805L10.4714 11.5971C10.4853 11.8542 10.4492 12.1117 10.3667 12.3448C10.2841 12.5779 10.1579 12.7787 10.0002 12.9278L9.99671 12.9312C9.84505 13.0546 9.68804 13.1659 9.5265 13.2645L9.49649 13.2812C9.30762 13.3889 9.10589 13.4509 8.90072 13.4645H8.89622C8.75677 13.4774 8.6172 13.4421 8.49104 13.3619L8.49604 13.3645C8.44648 13.3084 8.41229 13.2319 8.3988 13.1471C8.38531 13.0623 8.3933 12.974 8.4215 12.8958L8.4205 12.8985C8.62059 12.5245 8.81768 12.1991 9.02728 11.8885L9.02077 11.8985L9.57102 10.9658L9.47148 10.6657C9.38507 10.4517 9.31212 10.2285 9.25338 9.99838L9.24637 9.96638C9.19635 9.74415 9.15467 9.53325 9.12132 9.33369L9.09631 9.10034L8.8462 9.90038C8.64644 10.5222 8.46302 11.0553 8.29595 11.4998C8.04684 12.1665 7.83841 12.6776 7.67067 13.0332L7.62065 13.1332C7.42089 13.555 7.22914 13.7659 7.04539 13.7659C6.86164 13.7659 6.73708 13.6103 6.67172 13.2992C6.62078 13.05 6.59521 12.7928 6.59569 12.5345L6.59619 12.4625V12.4658L6.64621 11.9991V12.0325C6.51282 12.4543 6.37942 12.843 6.24603 13.1985C6.16481 13.4126 6.07062 13.6175 5.9644 13.8112L5.97091 13.7986C5.86786 13.9426 5.72279 14.0319 5.56222 14.0319H5.55822C5.54772 14.0332 5.53571 14.0332 5.52371 14.0332C5.40224 14.0334 5.28507 13.9733 5.19506 13.8646L5.19556 13.8652C5.01809 13.6225 4.89029 13.3232 4.82439 12.9959L4.82189 12.9818C4.7236 12.61 4.68062 12.2162 4.69533 11.8225V11.8291C4.73485 11.2984 4.81439 10.8124 4.93094 10.3491L4.92043 10.3964L4.02053 11.0964V11.1298C4.18467 11.5895 4.25358 12.0993 4.22012 12.6065L4.22062 12.5958C4.1964 13.2551 4.03857 13.8933 3.76392 14.4426L3.77042 14.4292C3.49579 15.0148 3.09125 15.472 2.6129 15.7373L2.59639 15.7453C2.30884 15.9145 1.99781 16.0013 1.68348 16C1.47439 16 1.2713 15.9626 1.07921 15.892L1.09522 15.8966C0.940003 15.8279 0.808234 15.6878 0.723553 15.5013L0.722052 15.4973C0.600862 15.2614 0.531083 14.9854 0.520462 14.6999V14.6959C0.488824 14.2913 0.542346 13.8829 0.675031 13.5165L0.670529 13.5299C0.95064 12.8885 1.34953 12.3537 1.82905 11.9765L1.84406 11.9658C2.20187 11.6379 2.57758 11.3462 2.96806 11.0931L3.02108 11.0618L3.14614 10.9618C2.99607 10.8062 2.72095 10.5395 2.32077 10.1617C1.8161 9.71368 1.3357 9.21888 0.883125 8.68099L0.89563 8.69566C0.46674 8.20594 0.162448 7.5509 0.0247397 6.82091L0.0207379 6.79557C-0.0368164 6.32267 0.0262362 5.8377 0.199818 5.41818L0.195816 5.42951C0.463687 4.65317 0.854072 3.963 1.34033 3.40609L1.34633 3.39942C1.86675 2.74472 2.4489 2.18309 3.07811 1.72868L3.12163 1.70001C3.73248 1.23574 4.37353 0.845914 5.03699 0.535293L5.12203 0.500624C5.81154 0.171203 6.53851 0.00272663 7.27099 0.0026021H7.27199C7.91126 -0.0242784 8.54577 0.157444 9.12032 0.531959L9.09731 0.517959C9.54751 0.791304 9.88466 1.30599 10.0197 1.93536L10.0227 1.95136C10.14 2.58558 10.0986 3.25353 9.90467 3.85344L9.91017 3.83411C9.70676 4.4999 9.40049 5.10118 9.01127 5.59885L9.00977 5.60085C8.62114 6.11441 8.15869 6.51805 7.65016 6.78757L7.62265 6.80024C7.04688 7.12418 6.43144 7.30473 5.80683 7.33293L5.79733 7.3336C5.40371 7.39005 5.0056 7.34247 4.6258 7.19359L4.64731 7.20092C4.41611 7.10432 4.2025 6.94471 4.02003 6.73224L4.02203 6.73424C3.89845 6.60054 3.79724 6.43385 3.7249 6.24488L3.7219 6.23621C3.67187 6.05843 3.66771 5.95287 3.70939 5.91953C3.75108 5.8862 3.78026 5.88064 3.79693 5.90287L3.92199 6.06954C4.06155 6.24221 4.22812 6.37822 4.41221 6.46489L4.42221 6.46889C4.67532 6.58623 4.96746 6.65423 5.27109 6.65423C5.36864 6.65423 5.46468 6.64757 5.55922 6.63356L5.54772 6.6349C6.3224 6.51683 7.06539 6.15759 7.71669 5.58618L7.69818 5.60152C8.22134 5.18966 8.65709 4.60684 8.96425 3.90811L8.97325 3.88544C9.12382 3.59076 9.21386 3.22675 9.21386 2.83473C9.21386 2.59405 9.17984 2.36337 9.11782 2.15137L9.12132 2.16403C9.02861 1.96687 8.90552 1.79823 8.76021 1.66927C8.61489 1.54031 8.45068 1.45398 8.27844 1.416L8.27144 1.41467C7.7217 1.2418 7.15067 1.22657 6.59619 1.37L6.6212 1.36466C5.8222 1.55191 5.04888 1.89824 4.32717 2.39204L4.37269 2.36337C2.32244 3.74121 1.2638 5.15217 1.19677 6.59623V6.6289C1.19677 7.21092 1.36834 7.73961 1.64797 8.1303L1.64747 8.12963C1.96275 8.59771 2.31683 9.01662 2.70294 9.37836L2.72245 9.39569C3.05925 9.72976 3.37663 10.0973 3.67187 10.4951L3.67238 10.4964L3.7224 10.5631L5.32312 9.39702C5.50083 9.05219 5.72223 8.75124 5.97741 8.50765L5.98541 8.50032C6.1855 8.27631 6.43962 8.1303 6.71824 8.10096L6.72274 8.1003C6.73275 8.09896 6.74425 8.09896 6.75626 8.09896C6.94284 8.09896 7.10291 8.24897 7.17194 8.46365L7.17294 8.46765C7.24625 8.68953 7.27205 8.93413 7.24748 9.17435L7.24798 9.16768L7.19946 9.49636L7.27449 9.42969C7.31886 9.38477 7.37147 9.35656 7.42682 9.348C7.48216 9.33944 7.53822 9.35084 7.58913 9.38102L7.58713 9.37969C7.64305 9.39876 7.69111 9.44634 7.72095 9.51218C7.7508 9.57803 7.76005 9.65686 7.7467 9.7317L7.7472 9.7297L7.67217 10.0964C7.5221 10.896 7.42222 11.4736 7.37253 11.8291C7.34039 11.9819 7.32787 12.1408 7.33552 12.2992V12.2952C7.34385 12.4285 7.35636 12.4952 7.37303 12.4952C7.38971 12.4952 7.42289 12.4285 7.47258 12.2952L7.54761 12.0618C7.56429 12.0618 7.56429 12.0729 7.54761 12.0951L7.82274 11.3284C8.47303 9.41813 8.82302 8.35142 8.87271 8.1283L9.02277 7.4956C9.03945 7.45116 9.10614 7.40693 9.22286 7.36293C9.36252 7.31391 9.50668 7.29146 9.65106 7.29626H9.64956C9.88299 7.29626 9.99971 7.37404 9.99971 7.5296L9.9747 7.69628C9.91153 7.93316 9.8599 8.17523 9.82013 8.42098L9.81463 8.46298C9.78946 8.68876 9.79403 8.91866 9.82814 9.14234L9.82663 9.12968L9.85165 9.26235C9.90267 9.54036 9.9802 9.78437 10.0817 10.007L10.0767 9.99572C10.2765 9.5517 10.4683 9.09634 10.652 8.62965C10.7971 8.30764 10.9321 7.93429 11.0407 7.54361L11.0522 7.49694C11.0897 7.24559 11.1327 7.03358 11.1852 6.82691L11.1772 6.86424C11.1939 6.79757 11.2651 6.74757 11.3908 6.71424C11.5099 6.68223 11.6465 6.66423 11.786 6.66423H11.804H11.803C12.0365 6.66423 12.161 6.74201 12.1767 6.89758L12.1267 7.03025C12.0671 7.25426 12.0151 7.52361 11.9801 7.80028L11.9771 7.83029C11.9614 8.05795 11.9705 8.28745 12.0041 8.51165L12.0021 8.49632V8.62899C12.0596 8.91967 12.1452 9.17501 12.2572 9.40636L12.2522 9.39569L12.3273 9.62903C12.7724 9.34176 13.2608 9.19356 13.7554 9.19568H13.7749H13.7739L13.7734 9.19768ZM3.0491 14.0332C3.41027 13.537 3.61198 12.8725 3.61135 12.1811C3.61148 11.9105 3.58078 11.6414 3.52031 11.3831L3.52431 11.4018L3.12413 11.7351C2.71595 12.0451 2.36279 12.3912 2.04314 12.7845L2.04715 12.7798C1.80148 13.0801 1.62474 13.4671 1.53742 13.8959L1.53442 13.9126C1.45938 14.3237 1.4969 14.5904 1.64697 14.7126C1.73851 14.7686 1.84606 14.8013 1.95861 14.8013C2.08166 14.8013 2.19821 14.7626 2.30076 14.6933L2.29626 14.6959C2.58282 14.5588 2.83989 14.3304 3.04509 14.0306L3.04659 14.0286L3.0491 14.0332ZM6.3991 10.9638C6.48247 10.6749 6.57418 10.3304 6.67422 9.93038C6.80761 9.39702 6.85347 9.08612 6.81178 8.99767C6.7701 8.90922 6.6909 8.89811 6.57418 8.96434C6.4394 9.05057 6.3204 9.17504 6.22552 9.32902L6.22402 9.33169C6.11627 9.51416 6.01895 9.70715 5.93289 9.90905L5.92388 9.93171C5.81806 10.1645 5.73533 10.4146 5.67777 10.6757L5.67327 10.6984C5.55674 11.1275 5.50588 11.5834 5.52371 12.0391V12.0311C5.54038 12.4752 5.59374 12.7141 5.68378 12.7478C5.77382 12.7816 5.87803 12.6205 5.99642 12.2645C6.11097 11.9891 6.21301 11.6691 6.28905 11.3338L6.29605 11.2978C6.34574 11.1404 6.37976 11.0291 6.3981 10.9638H6.3991ZM9.17334 12.7305C9.34569 12.6289 9.49452 12.4677 9.60437 12.2636C9.71423 12.0595 9.78113 11.8199 9.79812 11.5698L9.79862 11.5645V11.5311L9.5235 11.9978L9.02377 12.7312C9.01993 12.7351 9.01681 12.7401 9.01465 12.7459C9.01248 12.7517 9.01133 12.7581 9.01127 12.7645C9.01127 12.7778 9.01627 12.7898 9.02327 12.7978C9.03928 12.8196 9.0893 12.7967 9.17334 12.7305ZM11.3238 12.0971C11.5106 12.0272 11.6753 11.8779 11.7926 11.6719C11.91 11.4658 11.9737 11.2144 11.9741 10.9558V10.9298V10.9311C11.9691 10.7978 11.9511 10.6724 11.9216 10.5537L11.9236 10.5637C11.729 10.7944 11.5694 11.0704 11.4539 11.3818L11.4484 11.3971C11.298 11.7967 11.2559 12.0296 11.3223 12.0958L11.3238 12.0971Z" fill="white"/>
</svg>
