<svg width="16" height="10" viewBox="0 0 16 10" fill="none" xmlns="http://www.w3.org/2000/svg">
<path id="Vector" d="M8 0.199951C5.864 0.199951 4.536 1.26395 4 3.39995C4.8 2.33595 5.736 1.93595 6.8 2.19995C7.408 2.35195 7.848 2.79195 8.328 3.27995C9.112 4.07995 10 4.99995 12 4.99995C14.136 4.99995 15.464 3.93595 16 1.79995C15.2 2.86395 14.264 3.26395 13.2 2.99995C12.592 2.84795 12.16 2.40795 11.672 1.91995C10.888 1.11995 10 0.199951 8 0.199951ZM4 4.99995C1.864 4.99995 0.536 6.06395 0 8.19995C0.8 7.13595 1.736 6.73595 2.8 6.99995C3.408 7.15195 3.84 7.59195 4.328 8.07995C5.112 8.87995 6 9.79995 8 9.79995C10.136 9.79995 11.464 8.73595 12 6.59995C11.2 7.66395 10.264 8.06395 9.2 7.79995C8.592 7.64795 8.16 7.20795 7.672 6.71995C6.888 5.91995 6 4.99995 4 4.99995Z" fill="white"/>
</svg>
