<svg width="16" height="14" viewBox="0 0 16 14" fill="none" xmlns="http://www.w3.org/2000/svg">
<g id="Group">
<path id="Vector" d="M15 7.35005V2.45005C15 2.07875 14.8525 1.72265 14.5899 1.4601C14.3274 1.19755 13.9713 1.05005 13.6 1.05005H2.4C2.0287 1.05005 1.6726 1.19755 1.41005 1.4601C1.1475 1.72265 1 2.07875 1 2.45005V10.85C1 11.62 1.63 12.25 2.4 12.25H8" stroke="white" stroke-width="1.5" stroke-linecap="round" stroke-linejoin="round"/>
<path id="Vector_2" d="M15 3.1499L8.721 7.1399C8.50489 7.2753 8.25502 7.34711 8 7.34711C7.74498 7.34711 7.49511 7.2753 7.279 7.1399L1 3.1499M10.8 11.5499L12.2 12.9499L15 10.1499" stroke="white" stroke-width="1.5" stroke-linecap="round" stroke-linejoin="round"/>
</g>
</svg>
