<svg width="16" height="14" viewBox="0 0 16 14" fill="none" xmlns="http://www.w3.org/2000/svg">
<g id="Group">
<path id="Vector" d="M1 3.1111C1 2.69854 1.16389 2.30288 1.45561 2.01115C1.74733 1.71943 2.143 1.55554 2.55556 1.55554H13.4444C13.857 1.55554 14.2527 1.71943 14.5444 2.01115C14.8361 2.30288 15 2.69854 15 3.1111V10.8889C15 11.3014 14.8361 11.6971 14.5444 11.9888C14.2527 12.2805 13.857 12.4444 13.4444 12.4444H2.55556C2.143 12.4444 1.74733 12.2805 1.45561 11.9888C1.16389 11.6971 1 11.3014 1 10.8889V3.1111Z" stroke="white" stroke-width="1.5" stroke-linecap="round" stroke-linejoin="round"/>
<path id="Vector_2" d="M1 3.11133L8 7.77799L15 3.11133" stroke="white" stroke-width="1.5" stroke-linecap="round" stroke-linejoin="round"/>
</g>
</svg>
