<svg width="10" height="18" viewBox="0 0 10 18" fill="none" xmlns="http://www.w3.org/2000/svg">
<path id="Vector" d="M8.07692 0.538452H1.92308C1.41305 0.538452 0.923903 0.741061 0.563256 1.10171C0.202609 1.46236 0 1.9515 0 2.46153L0 15.5385C0 16.0485 0.202609 16.5376 0.563256 16.8983C0.923903 17.2589 1.41305 17.4615 1.92308 17.4615H8.07692C8.58696 17.4615 9.0761 17.2589 9.43674 16.8983C9.79739 16.5376 10 16.0485 10 15.5385V2.46153C10 1.9515 9.79739 1.46236 9.43674 1.10171C9.0761 0.741061 8.58696 0.538452 8.07692 0.538452ZM5 16.6923C4.36154 16.6923 3.84615 16.1769 3.84615 15.5385C3.84615 14.9 4.36154 14.3846 5 14.3846C5.63846 14.3846 6.15385 14.9 6.15385 15.5385C6.15385 16.1769 5.63846 16.6923 5 16.6923ZM8.46154 13.6154H1.53846V2.84614H8.46154V13.6154Z" fill="white"/>
</svg>
