<svg width="18" height="16" viewBox="0 0 18 16" fill="none" xmlns="http://www.w3.org/2000/svg">
<path id="Vector" d="M9.00002 6.42779C9.85684 6.42779 10.5556 7.12655 10.5556 8C10.5556 8.83186 9.85684 9.53894 9.00002 9.53894C8.14321 9.53894 7.44445 8.83186 7.44445 8C7.44445 7.12655 8.14321 6.42779 9.00002 6.42779ZM5.14852 14.6549C5.67259 14.971 6.82056 14.4885 8.14321 13.2407C7.71064 12.7499 7.2864 12.2175 6.88711 11.6602C6.21676 11.596 5.55032 11.4961 4.89065 11.3607C4.4664 13.1409 4.62445 14.3637 5.14852 14.6549ZM5.73914 9.88L5.4979 9.45575C5.4064 9.69699 5.31489 9.93823 5.25666 10.1711C5.48127 10.2211 5.73082 10.2627 5.9887 10.3042L5.73914 9.88ZM11.1795 9.24779L11.8533 8L11.1795 6.75221C10.9299 6.31133 10.6637 5.92036 10.4225 5.52938C9.9733 5.50443 9.49914 5.50443 9.00002 5.50443C8.50091 5.50443 8.02675 5.50443 7.57755 5.52938C7.33631 5.92036 7.07011 6.31133 6.82056 6.75221L6.14675 8L6.82056 9.24779C7.07011 9.68867 7.33631 10.0796 7.57755 10.4706C8.02675 10.4956 8.50091 10.4956 9.00002 10.4956C9.49914 10.4956 9.9733 10.4956 10.4225 10.4706C10.6637 10.0796 10.9299 9.68867 11.1795 9.24779ZM9.00002 3.6577C8.84197 3.84071 8.6756 4.03204 8.50923 4.25664H9.49082C9.32445 4.03204 9.15808 3.84071 9.00002 3.6577ZM9.00002 12.3423C9.15808 12.1593 9.32445 11.968 9.49082 11.7434H8.50923C8.6756 11.968 8.84197 12.1593 9.00002 12.3423ZM12.8432 1.34514C12.3275 1.02903 11.1795 1.51151 9.85684 2.7593C10.2894 3.25009 10.7136 3.78248 11.1129 4.33983C11.7951 4.40638 12.4689 4.5062 13.1094 4.6393C13.5336 2.85912 13.3756 1.63629 12.8432 1.34514ZM12.2609 6.12L12.5021 6.54425C12.5936 6.30301 12.6852 6.06177 12.7434 5.82885C12.5188 5.77894 12.2692 5.73735 12.0113 5.69575L12.2609 6.12ZM13.4671 0.255408C14.6899 0.954168 14.823 2.79257 14.3073 4.93876C16.4202 5.56266 17.9425 6.59416 17.9425 8C17.9425 9.40584 16.4202 10.4373 14.3073 11.0612C14.823 13.2074 14.6899 15.0458 13.4671 15.7446C12.2526 16.4434 10.5972 15.6448 9.00002 14.1225C7.40286 15.6448 5.74746 16.4434 4.52463 15.7446C3.31012 15.0458 3.17702 13.2074 3.69277 11.0612C1.57986 10.4373 0.0575562 9.40584 0.0575562 8C0.0575562 6.59416 1.57986 5.56266 3.69277 4.93876C3.17702 2.79257 3.31012 0.954168 4.52463 0.255408C5.74746 -0.443353 7.40286 0.35523 9.00002 1.87753C10.5972 0.35523 12.2526 -0.443353 13.4671 0.255408ZM13.2259 8C13.5087 8.62389 13.7582 9.24779 13.9662 9.88C15.7131 9.35593 16.6947 8.60726 16.6947 8C16.6947 7.39274 15.7131 6.64407 13.9662 6.12C13.7582 6.75221 13.5087 7.37611 13.2259 8ZM4.77419 8C4.49136 7.37611 4.2418 6.75221 4.03383 6.12C2.28693 6.64407 1.30534 7.39274 1.30534 8C1.30534 8.60726 2.28693 9.35593 4.03383 9.88C4.2418 9.24779 4.49136 8.62389 4.77419 8ZM12.2609 9.88L12.0113 10.3042C12.2692 10.2627 12.5188 10.2211 12.7434 10.1711C12.6852 9.93823 12.5936 9.69699 12.5021 9.45575L12.2609 9.88ZM9.85684 13.2407C11.1795 14.4885 12.3275 14.971 12.8432 14.6549C13.3756 14.3637 13.5336 13.1409 13.1094 11.3607C12.4689 11.4938 11.7951 11.5936 11.1129 11.6602C10.7136 12.2175 10.2894 12.7499 9.85684 13.2407ZM5.73914 6.12L5.9887 5.69575C5.73082 5.73735 5.48127 5.77894 5.25666 5.82885C5.31489 6.06177 5.4064 6.30301 5.4979 6.54425L5.73914 6.12ZM8.14321 2.7593C6.82056 1.51151 5.67259 1.02903 5.14852 1.34514C4.62445 1.63629 4.4664 2.85912 4.89065 4.6393C5.55032 4.50395 6.21676 4.40398 6.88711 4.33983C7.2864 3.78248 7.71064 3.25009 8.14321 2.7593Z" fill="white"/>
</svg>
