<svg width="18" height="18" viewBox="0 0 18 18" fill="none" xmlns="http://www.w3.org/2000/svg">
<g id="Group">
<path id="Vector" d="M9 17C13.4184 17 17 13.4184 17 9C17 4.5816 13.4184 1 9 1C4.5816 1 1 4.5816 1 9C1 13.4184 4.5816 17 9 17Z" stroke="white" stroke-width="1.5" stroke-linecap="round" stroke-linejoin="round"/>
<path id="Vector_2" d="M10.8664 14.6V13.1096C10.8864 12.8616 10.852 12.6136 10.7656 12.3792C10.6786 12.1446 10.5422 11.9316 10.3656 11.7544C12.04 11.5728 13.8 10.9544 13.8 8.11919C13.7984 7.39043 13.5112 6.69133 13 6.17199C13.2433 5.53848 13.226 4.83442 12.952 4.21359C12.952 4.21359 12.3224 4.03199 10.8664 4.98239C9.643 4.65988 8.35693 4.65988 7.13356 4.98239C5.67756 4.03199 5.04796 4.21439 5.04796 4.21439C4.77434 4.83476 4.75709 5.53815 4.99996 6.17119C4.48517 6.69438 4.19768 7.39961 4.19996 8.13359C4.19996 10.9488 5.95997 11.5664 7.63437 11.7688C7.45968 11.9444 7.32442 12.1552 7.23756 12.3872C7.15134 12.6174 7.11587 12.8636 7.13356 13.1088V14.6" stroke="white" stroke-width="1.5" stroke-linecap="round" stroke-linejoin="round"/>
<path id="Vector_3" d="M7.13362 13.5616C5.53362 14.0664 4.20002 13.5616 3.40002 12.0032" stroke="white" stroke-width="1.5" stroke-linecap="round" stroke-linejoin="round"/>
</g>
</svg>
