<svg width="16" height="16" viewBox="0 0 16 16" fill="none" xmlns="http://www.w3.org/2000/svg">
<g id="Group">
<g id="Clip path group">
<mask id="mask0_501_626" style="mask-type:luminance" maskUnits="userSpaceOnUse" x="0" y="0" width="16" height="16">
<g id="akarIconsTypescriptFill0">
<path id="Vector" d="M0 0H16V16H0V0Z" fill="white"/>
</g>
</mask>
<g mask="url(#mask0_501_626)">
<g id="Group_2">
<path id="Vector_2" d="M15.6193 5.84845e-07H0.380001C0.279157 0.000177194 0.182504 0.040361 0.111259 0.111731C0.0400147 0.1831 4.31228e-07 0.279824 5.85877e-07 0.380667V15.62C-8.72361e-05 15.67 0.00969906 15.7196 0.0287982 15.7658C0.0478974 15.812 0.0759338 15.854 0.111299 15.8894C0.146665 15.9247 0.188664 15.9528 0.234889 15.9719C0.281113 15.991 0.330653 16.0008 0.380667 16.0007H15.62C15.67 16.0007 15.7195 15.9908 15.7657 15.9717C15.8119 15.9526 15.8538 15.9245 15.8892 15.8892C15.9245 15.8538 15.9526 15.8119 15.9717 15.7657C15.9908 15.7195 16.0007 15.67 16.0007 15.62V0.380001C16.0006 0.330011 15.9906 0.280528 15.9714 0.234376C15.9522 0.188225 15.9241 0.14631 15.8887 0.111024C15.8533 0.0757374 15.8113 0.0477712 15.7651 0.0287218C15.7188 0.00967245 15.6693 -8.70398e-05 15.6193 5.84845e-07ZM9.524 8.55067H7.61933V14.476H6.09533V8.55067H4.19067V7.238H9.524V8.55067ZM9.95067 14.1373V12.554C9.95067 12.554 10.816 13.206 11.854 13.206C12.892 13.206 12.852 12.5273 12.852 12.434C12.852 11.4493 9.91067 11.4493 9.91067 9.26667C9.91067 6.29867 14.1967 7.47 14.1967 7.47L14.1433 8.88067C14.1433 8.88067 13.4247 8.40133 12.6127 8.40133C11.8007 8.40133 11.508 8.788 11.508 9.2C11.508 10.2647 14.476 10.1587 14.476 12.3013C14.476 15.6013 9.95067 14.138 9.95067 14.138V14.1373Z" fill="white"/>
</g>
</g>
</g>
</g>
</svg>
